<?xml version="1.0" encoding="utf-8"?>
<?xml-stylesheet type="text/xsl" href="rss1.xsl"?>
<rss version="2.0" xmlns:atom="http://www.w3.org/2005/Atom" xmlns:content="http://purl.org/rss/1.0/modules/content/" xmlns:dc="http://purl.org/dc/elements/1.1/" xmlns:media="http://search.yahoo.com/mrss/">
<channel>
 <title>Getty</title>
 <link>http://www.gettyimg.com/</link>
 <atom:link href="http://www.gettyimg.com/" rel="self" type="application/rss+xml" />

 
                <item>
                <title><![CDATA[【Music Videos】Madonna &amp; Sickick - Frozen On Fire [4K VP9 | PCM 24-bit 88.2 kHz | DD+ Dolby Atmos]]]></title>
                <link><![CDATA[https://sharemania.us/threads/madonna-sickick-frozen-on-fire-4k-vp9-pcm-24-bit-88-2-khz-dd-dolby-atmos.248298/]]></link>
                <description><![CDATA[<article>
<blockquote class="messageText SelectQuoteContainer ugc baseHtml">
<img src="https://images2.imgbox.com/37/8d/trxC7FaD_o.jpg" class="bbCodeImage LbImage" alt="[​IMG]" data-url="https://images2.imgbox.com/37/8d/trxC7FaD_o.jpg" style=""> <br>
<br>
<b>Genre: <span style="color: #0059b3">Electronic, Pop</span> <br>
Style: <span style="color: #0059b3">Downtempo, Trap</span> <br>
Year: <span style="color: #0059b3">2021 (Remix), Original song: 1998</span><br>
Video Source: <span style="color: #0059b3">YouTube 2160p (not available on a better streaming source)</span><br>
Audio Source: <span style="color: #0059b3">Qobuz &amp; Apple Music (Atmos Mix), thanks to moi &amp; SonMaxime</span></b><br>
<br>
"<b>Frozen On Fire </b>" is a remix project by Madonna in collaboration with Canadian DJ, singer, vocalist, producer and beatboxer Sickick. It's a remix of "Frozen", a song from her seventh studio album, <i>Ray of Light</i> (1998). "Frozen" was written by Madonna and Patrick Leonard, who both produced it in collaboration with William Orbit. The downtempo electronica ballad, which has a layered sound enhanced by synthesizers and strings, lyrically addresses a cold and emotionless man.<br>
<br>
In 2021, a Chill-Trap remix of "Frozen", made by Canadian DJ Sickick, became viral on TikTok. On December 3, 2021, it was officially released as the first single from Madonna's entire-catalog reissue project. Madonna and Sickick released three further renditions of the remix; a version featuring Nigerian singer Fireboy DML, a version featuring American rapper 070 Shake, and the version featuring vocals from Sickick himself titled "Frozen on Fire". Madonna even went into the studio with Sickick to re-record her vocals and sing a completely new verse. Madonna said: <i>"I was jealous that so many other people sang along to my track. I wanted to remind everyone that I wrote this song."</i><br>
The Sickick remix charted within the top ten of the <i>Billboard</i> Dance/Electronic Songs chart, and was certified Gold by the Syndicat National de l'Édition Phonographique (SNEP) in France.<br>
<br>
<b>Release Info</b><br>
The video track is downloaded from YouTube (no better source available) and left as is (VP9 2160p).<br>
The PCM track is downloaded from Qobuz (Hi-Res, 24-bit 88.2 kHz) &amp; synced with Adobe Audition.<br>
The Dolby Atmos track is downloaded from Apple Music by SonMaxime and is synced by muxing.<br>
The timed lyrics are synced and edited. Enable the subtitles to see the lyrics.<br>
<br>
<div class="ToggleTriggerAnchor bbCodeSpoilerContainer">
<button type="button" class="button bbCodeSpoilerButton ToggleTrigger Tooltip JsOnly" data-target="> .SpoilerTarget"><span>Spoiler: <span class="SpoilerTitle">Media Info</span></span></button>
<div class="SpoilerTarget bbCodeSpoilerText">
<div class="bbCodeBlock bbCodeCode">
<div class="type">Code:</div>
<pre>General
Unique ID                      : 309608570360244508415901712996764429559 (0xE8EC711141CE38819C2922D9C21B2CF7)
Complete name                  : Madonna &amp; Sickick - Frozen On Fire.mkv
Format                         : Matroska
Format version                 : Version 4 / Version 2
File size                      : 368 MiB
Duration                       : 3 min 12 s
Overall bit rate               : 16.1 Mb/s
Frame rate                     : 23.976 FPS
Encoded date                   : 2024-06-28 23:14:16 UTC
Writing application            : mkvmerge v85.0 ('Shame For You') 64-bit
Writing library                : libebml v1.4.5 + libmatroska v1.7.1

Video
ID                             : 1
Format                         : VP9
Codec ID                       : V_VP9
Duration                       : 3 min 10 s
Bit rate                       : 11.2 Mb/s
Width                          : 3 840 pixels
Height                         : 2 160 pixels
Display aspect ratio           : 16:9
Frame rate mode                : Constant
Frame rate                     : 23.976 (23976/1000) FPS
Bits/(Pixel*Frame)             : 0.056
Stream size                    : 254 MiB (69%)
Default                        : Yes
Forced                         : No

Audio #1
ID                             : 2
Format                         : PCM
Format settings                : Little / Signed
Codec ID                       : A_PCM/INT/LIT
Duration                       : 3 min 10 s
Bit rate mode                  : Constant
Bit rate                       : 4 234 kb/s
Channel(s)                     : 2 channels
Sampling rate                  : 88.2 kHz
Frame rate                     : 25.001 FPS (3528 SPF)
Bit depth                      : 24 bits
Stream size                    : 96.2 MiB (26%)
Title                          : Lossless 24-bit 88.2 kHz
Language                       : English
Default                        : Yes
Forced                         : No

Audio #2
ID                             : 3
Format                         : E-AC-3 JOC
Format/Info                    : Enhanced AC-3 with Joint Object Coding
Commercial name                : Dolby Digital Plus with Dolby Atmos
Codec ID                       : A_EAC3
Duration                       : 3 min 12 s
Bit rate mode                  : Constant
Bit rate                       : 768 kb/s
Channel(s)                     : 6 channels
Channel layout                 : L R C LFE Ls Rs
Sampling rate                  : 48.0 kHz
Frame rate                     : 31.250 FPS (1536 SPF)
Compression mode               : Lossy
Stream size                    : 17.6 MiB (5%)
Title                          : Dolby Atmos Mix
Language                       : English
Service kind                   : Complete Main
Default                        : No
Forced                         : No
Complexity index               : 16
Number of dynamic objects      : 15
Bed channel count              : 1 channel
Bed channel configuration      : LFE
Dialog Normalization           : -18 dB
compr                          : -0.28 dB
dmixmod                        : Lo/Ro
ltrtcmixlev                    : -3.0 dB
ltrtsurmixlev                  : -3.0 dB
lorocmixlev                    : -3.0 dB
lorosurmixlev                  : -3.0 dB
dialnorm_Average               : -18 dB
dialnorm_Minimum               : -18 dB
dialnorm_Maximum               : -18 dB

Text
ID                             : 4
Format                         : UTF-8
Codec ID                       : S_TEXT/UTF8
Codec ID/Info                  : UTF-8 Plain Text
Duration                       : 3 min 8 s
Bit rate                       : 53 b/s
Frame rate                     : 0.185 FPS
Count of elements              : 35
Stream size                    : 1.23 KiB (0%)
Title                          : Lyrics
Language                       : English
Default                        : No
Forced                         : No
</pre>
</div></div>
</div><br>
<b>Note to the peeps @ RuTracker: Give credit if you post the work of someone else!</b><br>
- Hurby4 aka ADHDerby<br>
<br>
<div class="bbCodeBlock bbCodeVfcHH HiddenContent">
<div class="attribution type">Hidden Content:</div>
<blockquote>You must reply before you can see the hidden data contained here.</blockquote>
</div>
<div class="messageTextEndMarker">&nbsp;</div>
</blockquote>
</article>]]></description>
                <author><![CDATA[ADHDerby]]></author>
                </item>

                
                <item>
                <title><![CDATA[【HD Live Performances】FEED - Jungle - Live @ Glastonbury 2024 FEED HDTV H264 1080i 422 MP2-ilya2129]]></title>
                <link><![CDATA[https://sharemania.us/threads/jungle-live-glastonbury-2024-feed-hdtv-h264-1080i-422-mp2-ilya2129.248297/]]></link>
                <description><![CDATA[<article>
<blockquote class="messageText SelectQuoteContainer ugc baseHtml">
<div style="text-align: center"><img src="https://i122.fastpic.org/big/2023/0623/b4/b37c6294354538a70aac338bdf3af5b4.png?r=1" class="bbCodeImage LbImage" alt="[​IMG]" data-url="https://i122.fastpic.org/big/2023/0623/b4/b37c6294354538a70aac338bdf3af5b4.png?r=1" style=""><br>
<br>
<a href="https://fastpic.org/view/123/2024/0630/_acbd35e2430ecb7139fc5748e4c9ad46.png.html" target="_blank" class="externalLink" rel="nofollow"><img src="https://i123.fastpic.org/thumb/2024/0630/46/_acbd35e2430ecb7139fc5748e4c9ad46.jpeg" class="bbCodeImage LbImage" alt="[​IMG]" data-url="https://i123.fastpic.org/thumb/2024/0630/46/_acbd35e2430ecb7139fc5748e4c9ad46.jpeg"></a> <a href="https://fastpic.org/view/123/2024/0630/_84bcbc7d7d51b55ec7bab17aef5c17ad.png.html" target="_blank" class="externalLink" rel="nofollow"><img src="https://i123.fastpic.org/thumb/2024/0630/ad/_84bcbc7d7d51b55ec7bab17aef5c17ad.jpeg" class="bbCodeImage LbImage" alt="[​IMG]" data-url="https://i123.fastpic.org/thumb/2024/0630/ad/_84bcbc7d7d51b55ec7bab17aef5c17ad.jpeg"></a> <a href="https://fastpic.org/view/123/2024/0630/_16d6651bc5f4371e76db629a6082c8cc.png.html" target="_blank" class="externalLink" rel="nofollow"><img src="https://i123.fastpic.org/thumb/2024/0630/cc/_16d6651bc5f4371e76db629a6082c8cc.jpeg" class="bbCodeImage LbImage" alt="[​IMG]" data-url="https://i123.fastpic.org/thumb/2024/0630/cc/_16d6651bc5f4371e76db629a6082c8cc.jpeg"></a> <a href="https://fastpic.org/view/123/2024/0630/_9e4dd6c267de9037dd0c01aad57bba37.png.html" target="_blank" class="externalLink" rel="nofollow"><img src="https://i123.fastpic.org/thumb/2024/0630/37/_9e4dd6c267de9037dd0c01aad57bba37.jpeg" class="bbCodeImage LbImage" alt="[​IMG]" data-url="https://i123.fastpic.org/thumb/2024/0630/37/_9e4dd6c267de9037dd0c01aad57bba37.jpeg"></a> <a href="https://fastpic.org/view/123/2024/0630/_36f9eb21f5884001ff09b6640b3871c9.png.html" target="_blank" class="externalLink" rel="nofollow"><img src="https://i123.fastpic.org/thumb/2024/0630/c9/_36f9eb21f5884001ff09b6640b3871c9.jpeg" class="bbCodeImage LbImage" alt="[​IMG]" data-url="https://i123.fastpic.org/thumb/2024/0630/c9/_36f9eb21f5884001ff09b6640b3871c9.jpeg"></a> <a href="https://fastpic.org/view/123/2024/0630/_1dcc86e900f2ad56795f5d1d0ef21245.png.html" target="_blank" class="externalLink" rel="nofollow"><img src="https://i123.fastpic.org/thumb/2024/0630/45/_1dcc86e900f2ad56795f5d1d0ef21245.jpeg" class="bbCodeImage LbImage" alt="[​IMG]" data-url="https://i123.fastpic.org/thumb/2024/0630/45/_1dcc86e900f2ad56795f5d1d0ef21245.jpeg"></a><br>
<br>
<i><br>
Busy Earnin'<br>
Candle Flame<br>
Dominoes<br>
The Heat<br>
Heavy, California<br>
Beat 54 (All Good Now)<br>
Problemz<br>
I've Been in Love<br>
Back on 74<br>
Casio<br>
Us Against the World<br>
Fire<br>
What D'You Know About Me<br>
Time<br>
Truth<br>
You Ain't No Celebrity<br>
Coming Back<br>
Don't Play<br>
All of the Time<br>
Holding On<br>
GOOD TIMES<br>
Keep Moving<br>
<br>
</i><br>
​</div><br>
<div class="bbCodeBlock bbCodeCode">
<div class="type">Code:</div>
<pre>General
ID                                       : 1 (0x1)
Complete name                            : C:\Recordings\Glasto 2024\Jungle - Live @ Glastonbury 2024 FEED HDTV H264 1080i 422 MP2-ilya2129.ts
Format                                   : MPEG-TS
File size                                : 16.5 GiB
Duration                                 : 1 h 17 min
Overall bit rate mode                    : Variable
Overall bit rate                         : 30.3 Mb/s
Frame rate                               : 25.000 FPS

Video
ID                                       : 302 (0x12E)
Menu ID                                  : 1 (0x1)
Format                                   : AVC
Format/Info                              : Advanced Video Codec
Format profile                           : High 4:2:2@L4.1
Format settings                          : CABAC / 4 Ref Frames
Format settings, CABAC                   : Yes
Format settings, Reference frames        : 4 frames
Format settings, GOP                     : M=3, N=48
Codec ID                                 : 27
Duration                                 : 1 h 17 min
Bit rate                                 : 28.4 Mb/s
Width                                    : 1 920 pixels
Height                                   : 1 080 pixels
Display aspect ratio                     : 16:9
Active Format Description                : Full frame 16:9 image
Frame rate                               : 25.000 FPS
Color space                              : YUV
Chroma subsampling                       : 4:2:2
Bit depth                                : 10 bits
Scan type                                : Interlaced
Scan type, store method                  : Separated fields
Scan order                               : Top Field First
Bits/(Pixel*Frame)                       : 0.548
Stream size                              : 15.5 GiB (94%)
Color range                              : Limited
Color primaries                          : BT.709
Transfer characteristics                 : BT.709
Matrix coefficients                      : BT.709

Audio
ID                                       : 303 (0x12F)
Menu ID                                  : 1 (0x1)
Format                                   : MPEG Audio
Format version                           : Version 1
Format profile                           : Layer 2
Codec ID                                 : 4
Duration                                 : 1 h 17 min
Bit rate mode                            : Constant
Bit rate                                 : 384 kb/s
Channel(s)                               : 2 channels
Sampling rate                            : 48.0 kHz
Frame rate                               : 41.667 FPS (1152 SPF)
Compression mode                         : Lossy
Delay relative to video                  : 110 ms
Stream size                              : 214 MiB (1%)
Language                                 : English

</pre>
</div>
<div class="bbCodeBlock bbCodeVfcHH HiddenContent">
<div class="attribution type">Hidden Content:</div>
<blockquote>You must reply before you can see the hidden data contained here.</blockquote>
</div>
<div class="messageTextEndMarker">&nbsp;</div>
</blockquote>
</article>]]></description>
                <author><![CDATA[ilya2129]]></author>
                </item>

                
                <item>
                <title><![CDATA[【Requests】[REQ AUD] - Zara Larsson - So Good (Japan Special Edition) (FLAC)]]></title>
                <link><![CDATA[https://sharemania.us/threads/zara-larsson-so-good-japan-special-edition-flac.248299/]]></link>
                <description><![CDATA[<article>
<blockquote class="messageText SelectQuoteContainer ugc baseHtml">
does anyone have a flac version or copy of Zara Larsson - So Good (Japan Special Edition)??? the link that i find here is not working anymore<img src="styles/default/xenforo/smilies/unhappy-48.png" class="mceSmilie" alt=":(" title="Frown    :(">
<div class="messageTextEndMarker">&nbsp;</div>
</blockquote>
</article>]]></description>
                <author><![CDATA[Renzzzzzzzy]]></author>
                </item>

                
                <item>
                <title><![CDATA[【HD Live Performances】UHDTV 4K - Cyndi Lauper - Live @ Glastonbury 2024 WEB-DL UHD HDR HLG H265 2160p AAC2.0-ilya2129]]></title>
                <link><![CDATA[https://sharemania.us/threads/cyndi-lauper-live-glastonbury-2024-web-dl-uhd-hdr-hlg-h265-2160p-aac2-0-ilya2129.248294/]]></link>
                <description><![CDATA[<article>
<blockquote class="messageText SelectQuoteContainer ugc baseHtml">
<div style="text-align: center"><img src="https://i122.fastpic.org/big/2023/0623/b4/b37c6294354538a70aac338bdf3af5b4.png?r=1" class="bbCodeImage LbImage" alt="[​IMG]" data-url="https://i122.fastpic.org/big/2023/0623/b4/b37c6294354538a70aac338bdf3af5b4.png?r=1" style=""><br>
<br>
<a href="https://fastpic.org/view/123/2024/0630/_a09f7b1b7aec719740a6b917ab280d8a.png.html" target="_blank" class="externalLink" rel="nofollow"><img src="https://i123.fastpic.org/thumb/2024/0630/8a/_a09f7b1b7aec719740a6b917ab280d8a.jpeg" class="bbCodeImage LbImage" alt="[​IMG]" data-url="https://i123.fastpic.org/thumb/2024/0630/8a/_a09f7b1b7aec719740a6b917ab280d8a.jpeg"></a> <a href="https://fastpic.org/view/123/2024/0630/_932b45b25a8ef020b0bbd80b5bb4ae47.png.html" target="_blank" class="externalLink" rel="nofollow"><img src="https://i123.fastpic.org/thumb/2024/0630/47/_932b45b25a8ef020b0bbd80b5bb4ae47.jpeg" class="bbCodeImage LbImage" alt="[​IMG]" data-url="https://i123.fastpic.org/thumb/2024/0630/47/_932b45b25a8ef020b0bbd80b5bb4ae47.jpeg"></a> <a href="https://fastpic.org/view/123/2024/0630/_58fd657287c8c5c68b644323008de1d3.png.html" target="_blank" class="externalLink" rel="nofollow"><img src="https://i123.fastpic.org/thumb/2024/0630/d3/_58fd657287c8c5c68b644323008de1d3.jpeg" class="bbCodeImage LbImage" alt="[​IMG]" data-url="https://i123.fastpic.org/thumb/2024/0630/d3/_58fd657287c8c5c68b644323008de1d3.jpeg"></a> <a href="https://fastpic.org/view/123/2024/0630/_87b7d138952139571465b445b8b9390a.png.html" target="_blank" class="externalLink" rel="nofollow"><img src="https://i123.fastpic.org/thumb/2024/0630/0a/_87b7d138952139571465b445b8b9390a.jpeg" class="bbCodeImage LbImage" alt="[​IMG]" data-url="https://i123.fastpic.org/thumb/2024/0630/0a/_87b7d138952139571465b445b8b9390a.jpeg"></a> <a href="https://fastpic.org/view/123/2024/0630/_d8648f83423125ce4665668f80afcfa4.png.html" target="_blank" class="externalLink" rel="nofollow"><img src="https://i123.fastpic.org/thumb/2024/0630/a4/_d8648f83423125ce4665668f80afcfa4.jpeg" class="bbCodeImage LbImage" alt="[​IMG]" data-url="https://i123.fastpic.org/thumb/2024/0630/a4/_d8648f83423125ce4665668f80afcfa4.jpeg"></a> <a href="https://fastpic.org/view/123/2024/0630/_da5da45c2650f4f3e6cd247c9eb60209.png.html" target="_blank" class="externalLink" rel="nofollow"><img src="https://i123.fastpic.org/thumb/2024/0630/09/_da5da45c2650f4f3e6cd247c9eb60209.jpeg" class="bbCodeImage LbImage" alt="[​IMG]" data-url="https://i123.fastpic.org/thumb/2024/0630/09/_da5da45c2650f4f3e6cd247c9eb60209.jpeg"></a><br>
<br>
<i><br>
The Goonies 'R' Good Enough<br>
She Bop<br>
Into the Nightlife<br>
Rocking Chair<br>
I Drove All Night<br>
Change of Heart<br>
Time After Time<br>
Savage Daughter<br>
Money Changes Everything<br>
Girls Just Want to Have Fun<br>
Not My Father's Son<br>
True Colors<br>
I'm Gonna Be Strong<br>
</i><br>
​</div><br>
<div class="bbCodeBlock bbCodeCode">
<div class="type">Code:</div>
<pre>General
ID                                       : 1 (0x1)
Complete name                            : C:\Recordings\Glasto 2024\Cyndi Lauper - Live @ Glastonbury 2024 WEB-DL UHD HDR HLG H265 2160p AAC2.0-ilya2129.ts
Format                                   : MPEG-TS
File size                                : 10.2 GiB
Duration                                 : 58 min 57 s
Overall bit rate mode                    : Variable
Overall bit rate                         : 24.8 Mb/s
Frame rate                               : 50.000 FPS

Video
ID                                       : 302 (0x12E)
Menu ID                                  : 1 (0x1)
Format                                   : HEVC
Format/Info                              : High Efficiency Video Coding
Format profile                           : Main 10@L5.1@Main
Codec ID                                 : 36
Duration                                 : 58 min 57 s
Width                                    : 3 840 pixels
Height                                   : 2 160 pixels
Display aspect ratio                     : 16:9
Frame rate                               : 50.000 FPS
Standard                                 : Component
Color space                              : YUV
Chroma subsampling                       : 4:2:0 (Type 2)
Bit depth                                : 10 bits
Time code of first frame                 : 13:29:52:28
Color range                              : Limited
Color primaries                          : BT.2020
Transfer characteristics                 : HLG / BT.2020 (10-bit)
Matrix coefficients                      : BT.2020 non-constant

Audio
ID                                       : 303 (0x12F)
Menu ID                                  : 1 (0x1)
Format                                   : AAC LC
Format/Info                              : Advanced Audio Codec Low Complexity
Format version                           : Version 4
Muxing mode                              : ADTS
Codec ID                                 : 15-2
Duration                                 : 58 min 57 s
Bit rate mode                            : Variable
Channel(s)                               : 2 channels
Channel layout                           : L R
Sampling rate                            : 48.0 kHz
Frame rate                               : 46.875 FPS (1024 SPF)
Compression mode                         : Lossy
Delay relative to video                  : 4 ms
Language                                 : English

</pre>
</div>
<div class="bbCodeBlock bbCodeVfcHH HiddenContent">
<div class="attribution type">Hidden Content:</div>
<blockquote>You must reply before you can see the hidden data contained here.</blockquote>
</div>
<div class="messageTextEndMarker">&nbsp;</div>
</blockquote>
</article>]]></description>
                <author><![CDATA[ilya2129]]></author>
                </item>

                
                <item>
                <title><![CDATA[【HD Live Performances】UHDTV 4K - Keane - Live @ Glastonbury 2024 WEB-DL UHD HDR HLG H265 2160p AAC2.0-ilya2129]]></title>
                <link><![CDATA[https://sharemania.us/threads/keane-live-glastonbury-2024-web-dl-uhd-hdr-hlg-h265-2160p-aac2-0-ilya2129.248295/]]></link>
                <description><![CDATA[<article>
<blockquote class="messageText SelectQuoteContainer ugc baseHtml">
thanks
<div class="messageTextEndMarker">&nbsp;</div>
</blockquote>
</article>]]></description>
                <author><![CDATA[ilya2129]]></author>
                </item>

                
                <item>
                <title><![CDATA[【HD Live Performances】HDTV - Jessie Ware - Live @ Glastonbury 2024 HDTV H264 1080i DD2.0-ilya2129]]></title>
                <link><![CDATA[https://sharemania.us/threads/jessie-ware-live-glastonbury-2024-hdtv-h264-1080i-dd2-0-ilya2129.248296/]]></link>
                <description><![CDATA[<article>
<blockquote class="messageText SelectQuoteContainer ugc baseHtml">
<div style="text-align: center"><img src="https://i122.fastpic.org/big/2023/0623/b4/b37c6294354538a70aac338bdf3af5b4.png?r=1" class="bbCodeImage LbImage" alt="[​IMG]" data-url="https://i122.fastpic.org/big/2023/0623/b4/b37c6294354538a70aac338bdf3af5b4.png?r=1" style=""><br>
<br>
<a href="https://fastpic.org/view/123/2024/0630/_ff12f17049b4e34146bf2a32909c4b0b.png.html" target="_blank" class="externalLink" rel="nofollow"><img src="https://i123.fastpic.org/thumb/2024/0630/0b/_ff12f17049b4e34146bf2a32909c4b0b.jpeg" class="bbCodeImage LbImage" alt="[​IMG]" data-url="https://i123.fastpic.org/thumb/2024/0630/0b/_ff12f17049b4e34146bf2a32909c4b0b.jpeg"></a> <a href="https://fastpic.org/view/123/2024/0630/_634d6a11780aaa8d4e0b3e72ad3120c4.png.html" target="_blank" class="externalLink" rel="nofollow"><img src="https://i123.fastpic.org/thumb/2024/0630/c4/_634d6a11780aaa8d4e0b3e72ad3120c4.jpeg" class="bbCodeImage LbImage" alt="[​IMG]" data-url="https://i123.fastpic.org/thumb/2024/0630/c4/_634d6a11780aaa8d4e0b3e72ad3120c4.jpeg"></a> <a href="https://fastpic.org/view/123/2024/0630/_9104b15cf220dc51fcb39ea784d2e70d.png.html" target="_blank" class="externalLink" rel="nofollow"><img src="https://i123.fastpic.org/thumb/2024/0630/0d/_9104b15cf220dc51fcb39ea784d2e70d.jpeg" class="bbCodeImage LbImage" alt="[​IMG]" data-url="https://i123.fastpic.org/thumb/2024/0630/0d/_9104b15cf220dc51fcb39ea784d2e70d.jpeg"></a> <a href="https://fastpic.org/view/123/2024/0630/_6c2b9718f111280b10100476194b72cb.png.html" target="_blank" class="externalLink" rel="nofollow"><img src="https://i123.fastpic.org/thumb/2024/0630/cb/_6c2b9718f111280b10100476194b72cb.jpeg" class="bbCodeImage LbImage" alt="[​IMG]" data-url="https://i123.fastpic.org/thumb/2024/0630/cb/_6c2b9718f111280b10100476194b72cb.jpeg"></a> <a href="https://fastpic.org/view/123/2024/0630/_c68e11ad3770d978499fe26b0913dd7f.png.html" target="_blank" class="externalLink" rel="nofollow"><img src="https://i123.fastpic.org/thumb/2024/0630/7f/_c68e11ad3770d978499fe26b0913dd7f.jpeg" class="bbCodeImage LbImage" alt="[​IMG]" data-url="https://i123.fastpic.org/thumb/2024/0630/7f/_c68e11ad3770d978499fe26b0913dd7f.jpeg"></a> <a href="https://fastpic.org/view/123/2024/0630/_cb68e89573bde5e7df27baad369af0c6.png.html" target="_blank" class="externalLink" rel="nofollow"><img src="https://i123.fastpic.org/thumb/2024/0630/c6/_cb68e89573bde5e7df27baad369af0c6.jpeg" class="bbCodeImage LbImage" alt="[​IMG]" data-url="https://i123.fastpic.org/thumb/2024/0630/c6/_cb68e89573bde5e7df27baad369af0c6.jpeg"></a><br>
<br>
<i><br>
Bend and Break<br>
Silenced by the Night<br>
Nothing in My Way<br>
We Might as Well Be Strangers<br>
You Are Young<br>
Everybody's Changing<br>
A Bad Dream<br>
Is It Any Wonder?<br>
This Is the Last Time<br>
Crystal Ball<br>
Somewhere Only We Know<br>
Sovereign Light Café<br>
Bedshaped<br>
</i><br>
​</div><br>
<div class="bbCodeBlock bbCodeCode">
<div class="type">Code:</div>
<pre>General
ID                                       : 1 (0x1)
Complete name                            : C:\Recordings\Glasto 2024\Keane - Live @ Glastonbury 2024 WEB-DL UHD HDR HLG H265 2160p AAC2.0-ilya2129.ts
Format                                   : MPEG-TS
File size                                : 10.4 GiB
Duration                                 : 1 h 0 min
Overall bit rate mode                    : Variable
Overall bit rate                         : 24.8 Mb/s
Frame rate                               : 50.000 FPS

Video
ID                                       : 302 (0x12E)
Menu ID                                  : 1 (0x1)
Format                                   : HEVC
Format/Info                              : High Efficiency Video Coding
Format profile                           : Main 10@L5.1@Main
Codec ID                                 : 36
Duration                                 : 1 h 0 min
Width                                    : 3 840 pixels
Height                                   : 2 160 pixels
Display aspect ratio                     : 16:9
Frame rate                               : 50.000 FPS
Standard                                 : Component
Color space                              : YUV
Chroma subsampling                       : 4:2:0 (Type 2)
Bit depth                                : 10 bits
Time code of first frame                 : 15:06:19:28
Color range                              : Limited
Color primaries                          : BT.2020
Transfer characteristics                 : HLG / BT.2020 (10-bit)
Matrix coefficients                      : BT.2020 non-constant

Audio
ID                                       : 303 (0x12F)
Menu ID                                  : 1 (0x1)
Format                                   : AAC LC
Format/Info                              : Advanced Audio Codec Low Complexity
Format version                           : Version 4
Muxing mode                              : ADTS
Codec ID                                 : 15-2
Duration                                 : 1 h 0 min
Bit rate mode                            : Variable
Channel(s)                               : 2 channels
Channel layout                           : L R
Sampling rate                            : 48.0 kHz
Frame rate                               : 46.875 FPS (1024 SPF)
Compression mode                         : Lossy
Delay relative to video                  : 12 ms
Language                                 : English


</pre>
</div>
<div class="bbCodeBlock bbCodeVfcHH HiddenContent">
<div class="attribution type">Hidden Content:</div>
<blockquote>You must reply before you can see the hidden data contained here.</blockquote>
</div>
<div class="messageTextEndMarker">&nbsp;</div>
</blockquote>
</article>]]></description>
                <author><![CDATA[ilya2129]]></author>
                </item>

                
                <item>
                <title><![CDATA[【Singers/Musicians】Super Сasual Dating - Legitimate Girls]]></title>
                <link><![CDATA[https://sharemania.us/threads/super-%D0%A1asual-dating-legitimate-girls.248292/]]></link>
                <description><![CDATA[<article>
<blockquote class="messageText SelectQuoteContainer ugc baseHtml">
<div style="text-align: center"><img src="https://i122.fastpic.org/big/2023/0623/b4/b37c6294354538a70aac338bdf3af5b4.png?r=1" class="bbCodeImage LbImage" alt="[​IMG]" data-url="https://i122.fastpic.org/big/2023/0623/b4/b37c6294354538a70aac338bdf3af5b4.png?r=1" style=""><br>
<br>
<a href="https://fastpic.org/view/123/2024/0630/_f42cdfb987ead5371d7df8a2170ee4f8.png.html" target="_blank" class="externalLink" rel="nofollow"><img src="https://i123.fastpic.org/thumb/2024/0630/f8/_f42cdfb987ead5371d7df8a2170ee4f8.jpeg" class="bbCodeImage LbImage" alt="[​IMG]" data-url="https://i123.fastpic.org/thumb/2024/0630/f8/_f42cdfb987ead5371d7df8a2170ee4f8.jpeg"></a> <a href="https://fastpic.org/view/123/2024/0630/_8b9347bbfd45c09809d38f5f2835495c.png.html" target="_blank" class="externalLink" rel="nofollow"><img src="https://i123.fastpic.org/thumb/2024/0630/5c/_8b9347bbfd45c09809d38f5f2835495c.jpeg" class="bbCodeImage LbImage" alt="[​IMG]" data-url="https://i123.fastpic.org/thumb/2024/0630/5c/_8b9347bbfd45c09809d38f5f2835495c.jpeg"></a> <a href="https://fastpic.org/view/123/2024/0630/_23f3043bc9ed5c915507930bc3acfeaf.png.html" target="_blank" class="externalLink" rel="nofollow"><img src="https://i123.fastpic.org/thumb/2024/0630/af/_23f3043bc9ed5c915507930bc3acfeaf.jpeg" class="bbCodeImage LbImage" alt="[​IMG]" data-url="https://i123.fastpic.org/thumb/2024/0630/af/_23f3043bc9ed5c915507930bc3acfeaf.jpeg"></a> <a href="https://fastpic.org/view/123/2024/0630/_d06966ede463b9c2bc9fbbbd5fdfa8b1.png.html" target="_blank" class="externalLink" rel="nofollow"><img src="https://i123.fastpic.org/thumb/2024/0630/b1/_d06966ede463b9c2bc9fbbbd5fdfa8b1.jpeg" class="bbCodeImage LbImage" alt="[​IMG]" data-url="https://i123.fastpic.org/thumb/2024/0630/b1/_d06966ede463b9c2bc9fbbbd5fdfa8b1.jpeg"></a> <a href="https://fastpic.org/view/123/2024/0630/_d1eda8900ec0fd6fd3925c79d264fb3e.png.html" target="_blank" class="externalLink" rel="nofollow"><img src="https://i123.fastpic.org/thumb/2024/0630/3e/_d1eda8900ec0fd6fd3925c79d264fb3e.jpeg" class="bbCodeImage LbImage" alt="[​IMG]" data-url="https://i123.fastpic.org/thumb/2024/0630/3e/_d1eda8900ec0fd6fd3925c79d264fb3e.jpeg"></a> <a href="https://fastpic.org/view/123/2024/0630/_db79f13af503ffa06adb0244e38a502c.png.html" target="_blank" class="externalLink" rel="nofollow"><img src="https://i123.fastpic.org/thumb/2024/0630/2c/_db79f13af503ffa06adb0244e38a502c.jpeg" class="bbCodeImage LbImage" alt="[​IMG]" data-url="https://i123.fastpic.org/thumb/2024/0630/2c/_db79f13af503ffa06adb0244e38a502c.jpeg"></a><br>
<br>
<i><br>
That! Feels Good!<br>
Shake the Bottle<br>
Ooh La La<br>
Pearls<br>
Begin Again<br>
Hello Love<br>
Remember Where You Are<br>
Say You Love Me<br>
Lift You Up<br>
Freak Me Now<br>
Running<br>
Hot N Heavy<br>
What's Your Pleasure?<br>
Overtime / Adore You<br>
Mirage (Don't Stop)<br>
Spotlight<br>
Save a Kiss<br>
Beautiful People<br>
Believe (Cher cover)<br>
Free Yourself<br>
</i><br>
​</div><br>
<div class="bbCodeBlock bbCodeCode">
<div class="type">Code:</div>
<pre>General
ID                                       : 1 (0x1)
Complete name                            : C:\Recordings\Glasto 2024\Jessie Ware - Live @ Glastonbury 2024 HDTV H264 1080i DD2.0-ilya2129.ts
Format                                   : MPEG-TS
File size                                : 3.58 GiB
Duration                                 : 1 h 25 min
Overall bit rate mode                    : Variable
Overall bit rate                         : 6 005 kb/s
Frame rate                               : 25.000 FPS

Video
ID                                       : 302 (0x12E)
Menu ID                                  : 1 (0x1)
Format                                   : AVC
Format/Info                              : Advanced Video Codec
Format profile                           : High@L4
Format settings                          : CABAC / 4 Ref Frames
Format settings, CABAC                   : Yes
Format settings, Reference frames        : 4 frames
Codec ID                                 : 27
Duration                                 : 1 h 25 min
Bit rate                                 : 5 256 kb/s
Width                                    : 1 920 pixels
Height                                   : 1 080 pixels
Display aspect ratio                     : 16:9
Active Format Description                : Letterbox 16:9 image, with alternative 14:9 center
Frame rate                               : 25.000 FPS
Standard                                 : Component
Color space                              : YUV
Chroma subsampling                       : 4:2:0
Bit depth                                : 8 bits
Scan type                                : MBAFF
Scan type, store method                  : Separated fields
Scan order                               : Top Field First
Bits/(Pixel*Frame)                       : 0.101
Stream size                              : 3.13 GiB (88%)
Color range                              : Limited
Color primaries                          : BT.709
Transfer characteristics                 : BT.709
Matrix coefficients                      : BT.709

Audio #1
ID                                       : 303 (0x12F)
Menu ID                                  : 1 (0x1)
Format                                   : MPEG Audio
Format version                           : Version 1
Format profile                           : Layer 2
Codec ID                                 : 3
Duration                                 : 1 h 25 min
Bit rate mode                            : Constant
Bit rate                                 : 256 kb/s
Channel(s)                               : 2 channels
Sampling rate                            : 48.0 kHz
Frame rate                               : 41.667 FPS (1152 SPF)
Compression mode                         : Lossy
Delay relative to video                  : -280 ms
Stream size                              : 156 MiB (4%)
Language                                 : nar

Audio #2
ID                                       : 304 (0x130)
Menu ID                                  : 1 (0x1)
Format                                   : AC-3
Format/Info                              : Audio Coding 3
Commercial name                          : Dolby Digital
Codec ID                                 : 6
Duration                                 : 1 h 25 min
Bit rate mode                            : Constant
Bit rate                                 : 192 kb/s
Channel(s)                               : 2 channels
Channel layout                           : L R
Sampling rate                            : 48.0 kHz
Frame rate                               : 31.250 FPS (1536 SPF)
Compression mode                         : Lossy
Delay relative to video                  : -280 ms
Stream size                              : 117 MiB (3%)
Language                                 : English
Service kind                             : Complete Main

Text
ID                                       : 310 (0x136)-888
Menu ID                                  : 1 (0x1)
Format                                   : Teletext Subtitle
Language                                 : English



</pre>
</div>
<div class="bbCodeBlock bbCodeVfcHH HiddenContent">
<div class="attribution type">Hidden Content:</div>
<blockquote>You must reply before you can see the hidden data contained here.</blockquote>
</div>
<div class="messageTextEndMarker">&nbsp;</div>
</blockquote>
</article>]]></description>
                <author><![CDATA[ChikaChikaSlimShady]]></author>
                </item>

                
                <item>
                <title><![CDATA[【Requests】[REQ AUD] - Tamia - Imagination Remixes]]></title>
                <link><![CDATA[https://sharemania.us/threads/tamia-imagination-remixes.248293/]]></link>
                <description><![CDATA[<article>
<blockquote class="messageText SelectQuoteContainer ugc baseHtml">
Thank you !!
<div class="messageTextEndMarker">&nbsp;</div>
</blockquote>
</article>]]></description>
                <author><![CDATA[SQUIREBUFFY]]></author>
                </item>

                </channel></rss>